{"title":"Lucky Kabootar (2014) Xvid {VikkyMaxx}[SilverRG]","uid":10023495,"size":737755072,"categoryP":"video","categoryS":"movies","magnet":"?xt=urn:btih:b68e4a7e68b66136a05bed07e117c2dd4da24d53&amp;dn=Lucky+Kabootar+%282014%29+Xvid+%7BVikkyMaxx%7D%5BSilverRG%5D&amp;tr=udp%3A%2F%2Ftracker.openbittorrent.com%3A80&amp;tr=udp%3A%2F%2Fopen.demonii.com%3A1337&amp;tr=udp%3A%2F%2Ftracker.coppersurfer.tk%3A6969&amp;tr=udp%3A%2F%2Fexodus.desync.com%3A6969","seeders":1,"leechers":1,"uploader":"shailendramaxx","files":22,"time":1398239006,"description":"VikkyMaxx SilverRG Presents\n\n\nGeneral:-\n \nComplete name :Lucky Kabootar (2014)Xvid{VikkyMaxx}[SilverRG]\nFormat : AVI \nFormat/Info : Audio Video Interleave \nFile size : 691 MiB \nDuration : 1h 57mn \nOverall bit rate : 825 Kbps \n\nVideo:-\n \nID : 0 \nFormat : MPEG-4 Visual \nFormat profile : Advanced Simple@L5 \nFormat settings, BVOP : 2 \nFormat settings, QPel : No \nFormat settings, GMC : No warppoints \nFormat settings, Matrix : Default (H.263) \nCodec ID : XVID \nCodec ID/Hint : XviD \nDuration : 1h 57mn \nBit rate : 753 Kbps \nWidth : 640 pixels \nHeight : 272 pixels \nDisplay aspect ratio : 2.35:1 \nFrame rate : 29.970 fps \nColor space : YUV \nChroma subsampling : 4:2:0 \nBit depth : 8 bits \nScan type : Progressive \nCompression mode : Lossy \nBits/(Pixel*Frame) : 0.144 \nStream size : 631 MiB (91%) \nWriting library : XviD 1.2.1 (UTC 2008-12-04) \n\nAudio:-\n \nID : 1 \nFormat : MPEG Audio \nFormat version : Version 2 \nFormat profile : Layer 3 \nMode : Joint stereo \nMode extension : MS Stereo \nCodec ID : 55 \nCodec ID/Hint : MP3 \nDuration : 1h 57mn \nBit rate mode : Constant \nBit rate : 64.0 Kbps \nChannel(s) : 2 channels \nSampling rate : 24.0 KHz \nCompression mode : Lossy \nStream size : 53.6 MiB (8%) \nAlignment : Aligned on interleaves \nInterleave, duration : 133 ms (4.00 video frames) \nInterleave, preload duration : 216 ms \nTitle : VTS_01_1 T80 2_0ch 192Kbps DELAY 0ms \nWriting library : LAME3.99r \nEncoding settings : -m j -V 4 -q 2 -lowpass 11 -b 64 \nLanguage: HINDI\n\n\nSCREENS:-\n\n &lt;a href=&quot;\nhttp://i.imgur.com/pvzW8Iy.jpg&quot; rel=&quot;nofollow&quot; target=&quot;_NEW&quot;&gt;\nhttp://i.imgur.com/pvzW8Iy.jpg&lt;/a&gt;\n &lt;a href=&quot;\nhttp://i.imgur.com/8naxRe1.jpg&quot; rel=&quot;nofollow&quot; target=&quot;_NEW&quot;&gt;\nhttp://i.imgur.com/8naxRe1.jpg&lt;/a&gt;\n &lt;a href=&quot;\nhttp://i.imgur.com/5K6omsz.jpg&quot; rel=&quot;nofollow&quot; target=&quot;_NEW&quot;&gt;\nhttp://i.imgur.com/5K6omsz.jpg&lt;/a&gt;\n &lt;a href=&quot;\nhttp://i.imgur.com/aJkhcVQ.png&quot; rel=&quot;nofollow&quot; target=&quot;_NEW&quot;&gt;\nhttp://i.imgur.com/aJkhcVQ.png&lt;/a&gt;\n &lt;a href=&quot;\nhttp://i.imgur.com/7DQQbFk.png&quot; rel=&quot;nofollow&quot; target=&quot;_NEW&quot;&gt;\nhttp://i.imgur.com/7DQQbFk.png&lt;/a&gt;\n &lt;a href=&quot;\nhttp://i.imgur.com/wMrfuEK.png&quot; rel=&quot;nofollow&quot; target=&quot;_NEW&quot;&gt;\nhttp://i.imgur.com/wMrfuEK.png&lt;/a&gt;\n &lt;a href=&quot;\nhttp://i.imgur.com/SLfAr6C.png&quot; rel=&quot;nofollow&quot; target=&quot;_NEW&quot;&gt;\nhttp://i.imgur.com/SLfAr6C.png&lt;/a&gt;\n &lt;a href=&quot;\nhttp://i.imgur.com/8OPXeF4.png&quot; rel=&quot;nofollow&quot; target=&quot;_NEW&quot;&gt;\nhttp://i.imgur.com/8OPXeF4.png&lt;/a&gt;\n &lt;a href=&quot;\nhttp://i.imgur.com/tvugJEf.png&quot; rel=&quot;nofollow&quot; target=&quot;_NEW&quot;&gt;\nhttp://i.imgur.com/tvugJEf.png&lt;/a&gt;\n &lt;a href=&quot;\nhttp://i.imgur.com/ssCNOik.jpg&quot; rel=&quot;nofollow&quot; target=&quot;_NEW&quot;&gt;\nhttp://i.imgur.com/ssCNOik.jpg&lt;/a&gt;\n\n\n\n\n\nSAMPLE AND SCREENSHOTS INCLUDED\n\n    \n             \n             ********** PLEASE SEED AS LONG AS YOU CAN AFTER DOWNLOAD **********\n       \n                    ***** THANK YOU REGARDS - VIKKYMAXX (SilverRG) *****\n\t\t\n           ","torrent":{"xt":"urn:btih:b68e4a7e68b66136a05bed07e117c2dd4da24d53","amp;dn":"Lucky+Kabootar+%282014%29+Xvid+%7BVikkyMaxx%7D%5BSilverRG%5D","amp;tr":["udp%3A%2F%2Ftracker.openbittorrent.com%3A80","udp%3A%2F%2Fopen.demonii.com%3A1337","udp%3A%2F%2Ftracker.coppersurfer.tk%3A6969","udp%3A%2F%2Fexodus.desync.com%3A6969"],"infoHash":"b68e4a7e68b66136a05bed07e117c2dd4da24d53","infoHashBuffer":{"type":"Buffer","data":[182,142,74,126,104,182,97,54,160,91,237,7,225,23,194,221,77,162,77,83]},"announce":[],"urlList":[]}}